<?xml version="1.0" encoding="utf-8"?>
<!-- Generator: Adobe Illustrator 27.2.0, SVG Export Plug-In . SVG Version: 6.00 Build 0)  -->
<svg version="1.1" id="Layer_1" xmlns="http://www.w3.org/2000/svg" xmlns:xlink="http://www.w3.org/1999/xlink" x="0px" y="0px"
	 viewBox="0 0 1000 1000" style="enable-background:new 0 0 1000 1000;" xml:space="preserve">
<style type="text/css">
	.st0{fill-rule:evenodd;clip-rule:evenodd;fill:#FF030E;}
</style>
<g>
	<path d="M617.9,450.7h17.4v22.9c0,2.8,0.3,5.3,0.8,7.5c0.5,2.2,1.4,4,2.7,5.5c1.3,1.5,3.1,2.6,5.5,3.4c2.3,0.8,5.4,1.2,9,1.2
		c3.5,0,6.4-0.4,8.6-1.1c2.2-0.8,4-2,5.3-3.6c1.3-1.7,2.2-3.8,2.7-6.5c0.5-2.7,0.8-6,0.8-9.9v-80.1h17.4v82.7
		c0,5.6-0.6,10.4-1.9,14.4c-1.3,4-3.3,7.2-6.1,9.8c-2.8,2.5-6.4,4.4-10.8,5.6c-4.4,1.2-9.7,1.8-15.9,1.8c-6.4,0-11.9-0.7-16.4-2
		c-4.5-1.3-8.1-3.2-10.9-5.7c-2.8-2.5-4.9-5.5-6.2-9c-1.3-3.5-1.9-7.5-1.9-11.9V450.7z"/>
	<path d="M729.9,491.6c3.4,0,5.8-0.8,7.3-2.4c1.5-1.6,2.3-4,2.5-7.4h-6.5c-4.3,0-8.5-0.4-12.4-1.1c-3.9-0.7-7.4-2.1-10.3-4
		c-2.9-1.9-5.3-4.7-7-8.1c-1.7-3.5-2.6-8-2.6-13.6c0-6.1,1.1-11,3.3-14.8c2.2-3.7,5-6.6,8.3-8.6c3.3-2,6.8-3.3,10.6-3.9
		c3.8-0.6,7.2-1,10.4-1c1.8,0,3.8,0,6.2,0.1c2.3,0.1,4.6,0.2,6.9,0.3c2.2,0.1,4.4,0.2,6.4,0.3c2,0.1,3.6,0.2,4.8,0.3V478
		c0,4.1-0.4,7.7-1.1,10.9c-0.8,3.2-2.2,6-4.2,8.2c-2,2.2-4.8,4-8.4,5.2c-3.6,1.2-8.1,1.8-13.6,1.8h-20.9v-12.5H729.9z M718.5,454.6
		c0,5.1,1.1,8.8,3.3,11c2.2,2.2,5.9,3.4,11.1,3.4h7v-28.6c-1.5-0.1-2.9-0.1-4.3-0.1s-2.3,0-2.9,0c-1.7,0-3.4,0.2-5,0.5
		c-1.7,0.3-3.2,1-4.6,2c-1.4,1-2.5,2.5-3.4,4.4C718.9,449.1,718.5,451.6,718.5,454.6z"/>
	<path d="M770.1,481.8V469h22.4v-57h17.3v57h19.7v-79.1h17.3v91.9H770.1z M814.1,401.6h-25.8v-7.5h5.4c-0.5-1.7-0.8-3-1-3.9
		c-0.2-0.9-0.2-1.7-0.2-2.5c0-3.4,1.2-6.1,3.6-8.1c2.4-2,5.9-3,10.5-3c0.7,0,1.6,0,2.7,0.1c1.1,0,2.1,0.1,2.8,0.2v7.2
		c-0.4,0-1,0-1.9-0.1c-0.8-0.1-1.5-0.1-1.9-0.1c-1.7,0-3.3,0.3-4.6,0.8c-1.3,0.6-2,1.9-2,4.1c0,0.7,0.1,1.4,0.2,2.2
		c0.1,0.8,0.4,1.8,0.8,3h11.5V401.6z"/>
	<path d="M883,389.9v91.9h-17.7v-91.9H883z"/>
</g>
<g>
	<path d="M694.8,593.9c0,5.3-1.2,9.9-3.5,13.6c-2.3,3.7-5.3,6.8-9,9.1c-3.7,2.3-7.8,4-12.4,5.1c-4.6,1.1-9.2,1.6-13.7,1.6
		c-5,0-9.8-0.5-14.1-1.6c-4.4-1.1-8.3-2.8-11.6-5.2c-3.3-2.4-6-5.5-7.9-9.4c-2-3.9-3-8.6-3.1-14.2h20.1c0.2,5,1.7,8.9,4.5,11.7
		c2.8,2.8,7,4.2,12.5,4.2c2,0,4.1-0.3,6.1-0.8c2-0.5,3.9-1.3,5.6-2.5c1.7-1.1,3-2.5,4.1-4.2c1.1-1.7,1.6-3.7,1.6-6
		c0-1.8-0.4-3.3-1.2-4.6c-0.8-1.2-1.9-2.3-3.3-3.3c-1.4-0.9-3.2-1.8-5.2-2.5c-2.1-0.7-4.4-1.4-7-2.2l-6.7-1.9
		c-3.7-1-7.2-2.2-10.7-3.6s-6.6-3.1-9.3-5.1c-2.7-2-4.9-4.5-6.6-7.4c-1.7-2.9-2.5-6.4-2.5-10.7c0-5.2,1.1-9.5,3.3-13.1
		c2.2-3.6,5-6.4,8.5-8.6c3.5-2.2,7.4-3.7,11.8-4.6c4.4-0.9,8.8-1.4,13.1-1.4c4.5,0,8.8,0.4,12.9,1.3c4.1,0.9,7.6,2.3,10.7,4.5
		c3.1,2.1,5.5,4.9,7.4,8.3c1.8,3.4,2.8,7.7,2.8,12.9H672c-0.4-4.3-1.9-7.6-4.3-9.9c-2.4-2.3-6-3.5-10.8-3.5c-1.9,0-3.7,0.3-5.4,0.8
		c-1.7,0.5-3.3,1.3-4.7,2.3c-1.4,1-2.5,2.3-3.4,3.8c-0.9,1.6-1.3,3.4-1.3,5.4c0,1.7,0.4,3.2,1.2,4.3c0.8,1.2,1.9,2.2,3.5,3.2
		c1.6,0.9,3.6,1.9,6,2.7c2.4,0.9,5.3,1.8,8.5,2.8l7.7,2.5c3.9,1.3,7.5,2.6,10.7,4.1c3.2,1.4,5.9,3.1,8.2,5.1c2.3,2,4,4.3,5.2,7
		C694.2,586.7,694.8,590,694.8,593.9z"/>
	<path d="M776,621.7l-8-21.5h-40.7l-8,21.5h-20l37.8-93.4h22.8l38.4,93.4H776z M747.8,542.7l-15.6,43.8h30.6L747.8,542.7z"/>
	<path d="M881.7,595.5c0,5.3-1.2,9.7-3.5,13c-2.3,3.4-5.3,6-8.9,7.9c-3.6,1.9-7.6,3.3-11.9,4c-4.4,0.7-8.6,1.1-12.7,1.1h-36.4v-93.4
		h32.1c2.9,0,6,0,9.2,0.1c3.2,0,6.2,0.4,9,1.1c5.6,1.3,10.3,3.8,14.1,7.5c3.8,3.7,5.6,8.7,5.6,15c0,6-1.7,10.7-5.1,13.9
		c-3.4,3.3-7.9,5.6-13.3,7.1c3.2,0.6,6.1,1.5,8.7,2.6c2.6,1.1,4.9,2.6,6.8,4.4c1.9,1.8,3.4,4,4.5,6.6
		C881.1,589.1,881.7,592.1,881.7,595.5z M858.4,554.5c0-2.4-0.5-4.4-1.5-6c-1-1.6-2.2-2.8-3.8-3.7c-1.5-0.9-3.3-1.5-5.2-1.9
		c-2-0.4-4-0.6-6-0.6h-14.1v24.9h12.8c2.2,0,4.4-0.1,6.5-0.5c2.1-0.3,4-0.9,5.7-1.8c1.7-0.9,3-2.2,4-3.8
		C857.9,559.4,858.4,557.2,858.4,554.5z M861.1,594.1c0-2.8-0.5-5-1.4-6.8c-0.9-1.8-2.2-3.2-3.8-4.2c-1.6-1-3.4-1.7-5.5-2.1
		c-2.1-0.4-4.3-0.6-6.7-0.6h-15.9v27.2h14.7c2.3,0,4.6-0.2,6.9-0.5c2.3-0.3,4.2-1,6-2c1.7-1,3.1-2.4,4.2-4.1
		C860.5,599.2,861.1,596.9,861.1,594.1z"/>
</g>
<g>
	<polygon class="st0" points="231.4,389.1 464.7,389.1 348.8,504.9 348.2,505.5 	"/>
	<polygon class="st0" points="231.4,621.8 464.7,621.8 348.8,506 348.2,505.5 	"/>
	<polygon class="st0" points="233.5,388.6 233.5,621.8 117.5,506 117,505.5 	"/>
	<polygon class="st0" points="464.2,388.6 464.2,621.8 580,506 580.5,505.5 	"/>
</g>
</svg>
