<?xml version="1.0" encoding="utf-8"?>
<!-- Generator: Adobe Illustrator 24.0.1, SVG Export Plug-In . SVG Version: 6.00 Build 0)  -->
<svg version="1.1" id="Layer_1" xmlns="http://www.w3.org/2000/svg" xmlns:xlink="http://www.w3.org/1999/xlink" x="0px" y="0px"
	 viewBox="0 0 1000 1000" style="enable-background:new 0 0 1000 1000;" xml:space="preserve">
<style type="text/css">
	.st0{fill:#7A6E66;}
	.st1{fill:#F5B335;}
	.st2{fill:#CE0E2D;}
</style>
<g>
	<path class="st0" d="M436,469.3c1.2-1.8,4.3-7.9,4.3-9.9c-3.3-3.2-8-3.8-9.5-5.7c-0.5-0.7,6-4.8,6.1-5.6l1.1-5.1
		c-0.3-0.6-13.2,9-13.1,16.3v0.6c-0.1,3.3,9.7,6.4,9.7,6.4c-1.9,2.4-20,10.1-24.1,11.2h0C420.1,478.1,430.6,477.7,436,469.3"/>
	<path class="st0" d="M183.6,470.2c-6-8.1-18.4-17.3-35-35.5c0,0-8.2-8.2-13-13.5l-1.7,12c9.3,12.6,26.7,30.2,47.5,47.7
		c0.8,0.7-0.7,1.6-1.3,1.8v0c-13,6.4-46.1,20.7-58.7,20.9c-19.4,0.3-12-25.4-10.4-29.8c0,0,0.6-1.8-0.3-2.2
		c-3.7,8.5-19.4,45.5,9.3,45.1c16.4-0.2,51.1-16.8,62.9-22.8c4-2,4-8,4.1-10.7C186.8,477.9,186.2,474.4,183.6,470.2"/>
	<path class="st0" d="M575,468.7l-0.7-0.8c-1.2,4-2.3,7.8-3.5,11.7c4,5.6,8.4,11.7,8.9,18.8c-0.5,4.5-11.9,6.1-21,6.2l-0.1,0
		c-22.5,0-20.2-13.5-20-19.3c-0.1,0.2-10.6,18.6-26.5,18.6c-18.3-0.9-24.1-12.3-24.4-20.4c-0.2-26.2-22.7-36.3-42.2-65.3l-0.6-0.9
		c0,0-6.4-10.1-7-10.9c3.2-3.1,81.4-20.1,95.1-22.8l0,0c2.9-0.4,5.4,0.2,3.3,7.6c-2.4,8.2-11.2,30-15.2,40.2
		c8.4-13.4,29.5-59,19.8-58.2c-16,2.9-94.9,21-106,25.5c-1.1,1.9-2.9,16.1-2,16.8c16.5,26.9,40.4,47.5,46.9,58.8
		c1.3,2.3,1.8,4.6,1.6,5.2c-6.2,14.8-58,25.9-74.6,25.9c-2.8,0-6.3-0.1-10-0.5c21.8-34.5-31.6-102-43.8-121.9
		c-3.8-5.8-5.3-8.4-5.3-8.4l-4.7,10c2.1,11.3,7.3,88.5,7.3,93.9c0.1,6.5,0.2,6.6,0.2,14.3c0,9.9-18.6,9.5-21,9.2
		c-6.5-1.2-9.6-14.7-10-23.9c-21.9,28.3-47.1,26.4-47.2,26.4c-24-2.7-24.8-34.5-25.6-53.3c-0.2-6.2-0.1-60.1-1.3-77.3
		c0,0-7.4,10.5-7.8,12.2c0,5.1,2,56,2.8,70.8c0.9,15.4-3,29.7-16.5,41.6c0.7-0.8,2.6-6,2.7-7.9c2.5-27.1-29.9-54-50.9-85l-0.7-0.9
		c0,0-9-15.2-10.9-17.7c-1.1,2.6-2.6,8.9-3.2,12.7c27.2,45.5,62.1,71.5,60.3,94.2c-0.4,4.5-1,6.3-3.7,9
		c-12.7,10.9-26.3,17.8-41.7,24.2l2.3,0c11.6,0.4,32-4.3,41.1-11c13-9.5,22.2-26.9,24.5-37.6l0.1-0.6l0.1,0.5
		c1.2,14.4,1.1,31.8,21.8,37.1c15.4,3.9,29.4-2.9,38.9-9.6c7.8-5.5,12.4-11.1,12.4-10.7c0,8.2,1.8,14.5,5.8,16.9
		c6.8,4.1,16.3,2.2,16.3,2.2c22.2-3.8,18.9-30.4,18.9-42.7c0-15.4-5.1-65.6-5.7-73.1c11.1,17.7,56.4,77.8,38.4,105.7
		c-5.6-1-11-2.8-14.1-6c0-0.2-6.6-4.9-6.5-13.3c0.1-11.3,8.3-22.2,8.3-22.2c-8.8,7.6-13.6,23.2-13.6,28.7c0,13,8.1,20.2,18.6,23.4
		c-5.1,5.9-6,7.2-9.3,10.6c5.6-2.9,10.3-6.1,14.1-9.5c3.2,0.6,6.5,0.8,9.7,0.8c43.1,0,80-16.6,85.6-30.2
		c-0.4,34.2,33.1,28.2,33.1,28.2c11.9-2,16.1-7.9,19.9-12.6l0,0.2c5.5,21.1,38.2,11.7,38.5,11.7c7.4-1.7,9.9-17.6,9.9-23.5
		C584.7,482.3,580,475,575,468.7"/>
	<path class="st0" d="M545.9,460.7l-9.8-7.2l-5.7,7.6c0,0-0.6,0.6,0,1.1l10,7.1l5.5-7.2C546.4,461.3,546.2,461,545.9,460.7"/>
	<path class="st0" d="M566,532.5l-9.8-7.3l-5.7,7.6c0,0-0.6,0.6,0,1.1l10,7.1l5.5-7.2C566.5,533.1,566.3,532.8,566,532.5"/>
	<path class="st0" d="M329.9,532.5l-9.8-7.2l-5.8,7.6c0,0-0.6,0.6,0,1.1l10,7.1l5.5-7.2C330.4,533.1,330.2,532.8,329.9,532.5"/>
	<path class="st0" d="M124.5,615.8c1.8,0,3.6-0.1,5.6-0.3c1.9-0.2,3.7-0.7,5.3-1.4c1.6-0.8,2.9-1.9,4-3.4c1-1.5,1.6-3.5,1.6-6.1
		c0-2.5-0.5-4.5-1.5-6c-1-1.5-2.3-2.7-3.8-3.6c-1.6-0.9-3.2-1.5-5.1-1.8c-1.9-0.3-3.7-0.5-5.4-0.5l-12.6,0v23.1H124.5z M124.8,584.2
		c1.5,0,3-0.2,4.5-0.6c1.5-0.4,2.9-1,4.1-1.8c1.3-0.8,2.3-1.9,3-3.2c0.8-1.3,1.1-2.9,1.1-4.8c0-2.1-0.4-3.7-1.1-5
		c-0.8-1.3-1.8-2.3-3-3c-1.2-0.7-2.6-1.2-4.1-1.4c-1.5-0.2-3-0.4-4.5-0.4h-12.3v20.1H124.8z M102.9,555.5l23.3,0
		c3.6,0,6.7,0.5,9.3,1.4c2.6,0.9,4.8,2.2,6.5,3.8c1.7,1.6,3,3.4,3.8,5.6c0.9,2.1,1.3,4.4,1.3,6.8c0,2.2-0.4,4.2-1.2,6
		c-0.8,1.8-1.8,3.3-2.9,4.6c-1.1,1.2-2.4,2.2-3.7,3c-1.4,0.8-2.6,1.2-3.7,1.4c1.4,0.2,3,0.6,4.8,1.3c1.8,0.6,3.4,1.6,4.9,2.9
		c1.5,1.3,2.8,3,3.8,5.1c1,2.1,1.5,4.7,1.5,7.8c0,3.7-0.7,6.8-2,9.3c-1.3,2.4-3.2,4.4-5.5,5.9c-2.3,1.5-5,2.6-8.2,3.2
		c-3.2,0.6-6.6,0.9-10.1,0.9l-22.1,0L102.9,555.5z"/>
	<path class="st0" d="M188.7,601.7c-0.3-0.1-0.8-0.2-1.6-0.3c-0.8-0.1-1.7-0.2-2.7-0.3c-1.1-0.1-2.2-0.1-3.3-0.2
		c-1.2-0.1-2.3-0.1-3.4-0.1c-2.6,0-4.8,0.3-6.4,0.9c-1.6,0.6-2.9,1.4-3.8,2.3c-0.9,0.9-1.6,2-1.9,3.1c-0.4,1.1-0.5,2.2-0.5,3.2
		c0,2.6,0.9,4.6,2.7,5.9c1.8,1.3,4.3,2,7.4,2c1.8,0,3.5-0.3,5.1-0.9c1.6-0.6,3-1.4,4.3-2.5c1.2-1,2.2-2.3,3-3.6
		c0.8-1.4,1.1-2.8,1.1-4.2L188.7,601.7z M188.9,618.6c-1.8,2.4-4.2,4.2-7.1,5.4c-2.9,1.2-5.9,1.8-9,1.8c-2,0-4-0.3-5.9-0.8
		c-2-0.5-3.8-1.4-5.4-2.6c-1.6-1.2-2.9-2.7-3.9-4.7c-1-1.9-1.5-4.2-1.5-7c0-5.2,1.8-9.3,5.4-12.4c3.6-3.1,8.8-4.7,15.6-4.7
		c1.1,0,2.3,0,3.5,0.1c1.2,0.1,2.4,0.1,3.5,0.2c1.1,0.1,2.1,0.1,2.9,0.2c0.8,0.1,1.4,0.1,1.8,0.2v-1.8c0-3.6-1.1-6.1-3.3-7.7
		c-2.2-1.6-5.1-2.3-8.8-2.3c-3.6,0-6.5,0.5-8.7,1.5c-2.1,1-3.9,2-5.4,3l-4.3-6.3c0.8-0.7,1.8-1.4,3-2.1c1.2-0.7,2.5-1.3,4.1-1.9
		c1.6-0.6,3.4-1.1,5.4-1.4c2-0.4,4.3-0.6,6.9-0.6c6.2,0,11.1,1.5,14.6,4.5c3.5,3,5.3,7.2,5.3,12.7v22.7l0,5.2c0,1.7,0,3.1,0.1,4.3
		h-8.6L188.9,618.6z"/>
	<path class="st0" d="M206.7,586.8v-5.5c0-1.6,0-3.2-0.1-4.9h8.9l0.3,7.2c0.6-0.8,1.4-1.7,2.3-2.7c0.9-1,2-1.9,3.3-2.8
		c1.3-0.8,2.8-1.5,4.6-2c1.8-0.6,3.7-0.8,5.9-0.8c6.3,0,10.9,1.8,14,5.5c3,3.7,4.5,8.6,4.5,14.9v28.8l-9.3,0v-28.1
		c0-4.5-1-7.8-2.9-9.9c-1.9-2.1-4.6-3.1-8.1-3.2c-2.7,0-4.9,0.6-6.7,1.7c-1.8,1.1-3.2,2.5-4.3,4.3c-1.1,1.7-1.9,3.8-2.3,6
		c-0.5,2.2-0.7,4.5-0.7,6.8v22.3h-9.3V586.8z"/>
</g>
<polygon class="st0" points="259.2,555.5 268.4,555.5 268.4,596.1 288.6,576.3 299.7,576.4 281.6,594.1 302.4,624.4 291.4,624.4 
	275.1,600.3 268.4,606.7 268.4,624.4 259.2,624.4 "/>
<path class="st0" d="M358.7,596.8l-11.1-30.3l-11.3,30.3L358.7,596.8z M342.8,555.5l10.1,0l27,68.9l-11,0l-7.1-19.2h-28.3l-7.1,19.2
	h-10.4L342.8,555.5z"/>
<polygon class="st0" points="383.8,555.5 393.1,555.5 393.1,624.4 383.8,624.4 "/>
<g>
	<path class="st0" d="M411.5,616.4c1,0.3,2.2,0.6,3.6,0.9c1.4,0.3,3.5,0.5,6.3,0.5c2.7,0,5.1-0.4,7.2-1.3c2.2-0.8,4-2.1,5.6-3.6
		c1.5-1.6,2.7-3.4,3.5-5.6c0.8-2.2,1.2-4.5,1.3-7.1c0-2.2-0.3-4.3-0.8-6.3c-0.5-2-1.3-3.8-2.5-5.4c-1.1-1.5-2.6-2.8-4.3-3.7
		c-1.7-0.9-3.8-1.4-6.3-1.4c-2.3,0-4.3,0.4-5.9,1.2c-1.7,0.8-3.1,1.8-4.2,3.1c-1.1,1.3-2,2.8-2.5,4.4c-0.6,1.7-0.8,3.4-0.8,5.2
		V616.4z M402.3,555.5h9.3l0,26.1c0.5-0.6,1.1-1.3,2-2.1c0.9-0.8,1.9-1.5,3.2-2.1c1.3-0.7,2.7-1.2,4.3-1.6c1.6-0.4,3.4-0.6,5.4-0.6
		c3.6,0,6.7,0.6,9.4,1.9c2.7,1.3,5,3,6.9,5.3c1.9,2.2,3.3,4.9,4.2,7.9c0.9,3,1.4,6.2,1.4,9.7c0,3.8-0.6,7.3-2,10.4
		c-1.3,3.2-3.2,5.9-5.5,8.2c-2.4,2.3-5.2,4.1-8.5,5.3c-3.3,1.3-7,1.9-11,1.9c-3.9,0-7.6-0.3-10.9-0.9c-3.4-0.6-6.1-1.4-8.1-2.2
		V555.5z"/>
</g>
<path class="st0" d="M455.7,576.4l9.3,0v48l-9.3,0V576.4z M455,557.3l10.4,0v10.4l-10.4,0V557.3z"/>
<polygon class="st0" points="474.6,555.5 483.9,555.5 483.9,624.4 474.6,624.4 "/>
<g>
	<path class="st0" d="M523,601.7c-0.3-0.1-0.8-0.2-1.6-0.3c-0.8-0.1-1.7-0.2-2.7-0.3c-1.1-0.1-2.1-0.1-3.3-0.2
		c-1.2-0.1-2.3-0.1-3.4-0.1c-2.6,0-4.7,0.3-6.4,0.9c-1.6,0.6-2.9,1.4-3.8,2.3c-0.9,0.9-1.6,2-1.9,3.1c-0.4,1.1-0.5,2.2-0.5,3.2
		c0,2.6,0.9,4.6,2.7,5.9c1.8,1.3,4.2,2,7.4,2c1.8,0,3.5-0.3,5.1-1c1.6-0.6,3-1.4,4.3-2.5c1.3-1,2.2-2.2,3-3.6
		c0.7-1.4,1.1-2.8,1.1-4.2V601.7z M523.1,618.6c-1.8,2.4-4.2,4.2-7.1,5.4c-2.9,1.2-5.9,1.8-9,1.8c-2,0-4-0.3-5.9-0.8
		c-2-0.5-3.8-1.4-5.4-2.6c-1.6-1.2-2.9-2.7-3.9-4.7c-1-1.9-1.5-4.2-1.5-7c0-5.2,1.8-9.3,5.4-12.4c3.6-3.1,8.8-4.6,15.6-4.7
		c1.1,0,2.3,0,3.5,0.1c1.2,0.1,2.4,0.1,3.5,0.2c1.1,0.1,2.1,0.1,2.9,0.2c0.8,0.1,1.4,0.1,1.8,0.2v-1.7c0-3.6-1.1-6.1-3.3-7.7
		c-2.2-1.6-5.1-2.3-8.8-2.3c-3.6,0-6.5,0.5-8.7,1.5c-2.1,1-3.9,2-5.4,3l-4.3-6.3c0.8-0.7,1.8-1.4,3-2.1c1.2-0.7,2.5-1.3,4.1-1.9
		c1.6-0.6,3.4-1.1,5.4-1.4c2-0.4,4.3-0.6,6.9-0.6c6.2,0,11.1,1.5,14.6,4.5c3.6,3,5.3,7.2,5.3,12.7l0,22.7l0,5.2c0,1.7,0,3.1,0.1,4.3
		l-8.7,0L523.1,618.6z"/>
	<path class="st0" d="M575.6,587c-0.7-0.5-2-1.3-3.8-2.2c-1.9-0.9-4.5-1.4-8-1.4c-2.3,0-4.4,0.4-6.2,1.2c-1.9,0.8-3.6,2-5,3.5
		c-1.4,1.5-2.5,3.4-3.3,5.6c-0.8,2.2-1.2,4.7-1.2,7.4c0,2.3,0.3,4.4,0.8,6.5c0.6,2,1.4,3.8,2.5,5.3c1.1,1.5,2.6,2.7,4.3,3.6
		c1.8,0.8,3.9,1.3,6.3,1.3c2.4,0,4.5-0.4,6.2-1.3c1.7-0.9,3.1-2,4.2-3.4c1.1-1.3,1.8-2.8,2.4-4.4c0.5-1.6,0.8-3.1,0.8-4.5L575.6,587
		z M575.6,618.3c-0.4,0.4-0.9,1.1-1.7,1.9c-0.8,0.9-1.8,1.7-3.2,2.5c-1.3,0.8-2.8,1.6-4.6,2.2c-1.8,0.6-3.8,0.9-6.1,0.9
		c-3,0-5.9-0.6-8.5-1.7c-2.6-1.2-4.9-2.8-6.8-5c-1.9-2.1-3.4-4.7-4.5-7.8c-1.1-3.1-1.6-6.5-1.6-10.3c0-4.5,0.8-8.4,2.4-11.7
		c1.6-3.3,3.6-6,6.1-8.1c2.4-2.1,5.1-3.6,7.9-4.6c2.9-1,5.6-1.4,8.1-1.4c3.5,0,6.2,0.4,8.1,1.2c1.9,0.8,3.4,1.5,4.5,1.9l0-22.8
		l9.3,0v58.4l0,5.5c0,1.6,0,3.2,0.1,4.9l-9.1,0L575.6,618.3z"/>
	<path class="st1" d="M854.7,373.1H647.1l0,125.8C682.8,478,724.3,466,768.6,466c47.4,0,91.6,13.7,128.9,37.3v-87.5
		C897.5,392.2,878.3,373.1,854.7,373.1"/>
	<path class="st2" d="M733,492.3c-31.4,0-60.7,8.6-85.8,23.5v64.9c0,23.6,19.1,42.8,42.7,42.8h207.5
		C880.3,548.4,813.2,492.3,733,492.3"/>
</g>
</svg>
