<?xml version="1.0" encoding="UTF-8"?>
<svg id="Layer_1" data-name="Layer 1" xmlns="http://www.w3.org/2000/svg" viewBox="0 0 1000 1000">
  <defs>
    <style>
      .cls-1 {
        fill: #4d2f26;
      }
    </style>
  </defs>
  <path class="cls-1" d="m859,414.22h-43.3l-18.64,51.52c-4.93,14.25-11.51,34.53-15.35,48.23h-.55c-3.29-13.7-7.67-28.5-12.06-41.65l-21.38-58.1h-44.94l58.1,151.27-4.93,13.15c-8.77,23.57-22.47,30.15-35.63,30.15-6.58,0-13.7-1.1-19.73-3.29l-4.93,33.43c6.03,1.1,15.35,2.19,21.92,2.19,36.17,0,58.65-14.8,78.93-67.42l62.48-159.49Zm-215.95,88.24c0,18.09-13.15,36.72-32.89,36.72-11.51,0-19.18-7.67-19.18-17.54,0-13.15,10.96-23.02,52.07-23.02v3.84Zm41.65,63.03c-1.1-12.61-1.1-26.86-1.1-39.46v-61.93c0-33.98-14.8-53.16-63.03-53.16-21.38,0-43.85,4.38-59.19,10.41l6.58,30.15c13.7-6.03,33.43-10.41,47.68-10.41,20.83,0,27.95,8.22,27.95,26.31v5.48c-54.81,0-90.98,16.99-90.98,52.62,0,24.66,16.44,43.3,44.94,43.3,23.57,0,42.75-12.06,50.42-29.05l.55.55c-1.1,7.67-1.64,16.99-1.64,25.76,0-.55,37.82-.55,37.82-.55Zm-188.54-139.22c0,22.47-13.15,36.17-39.46,36.17-9.32,0-17.54-1.64-17.54-1.64v-69.06s7.67-.55,15.89-.55c28.5.55,41.11,12.06,41.11,35.08Zm42.75-3.84c0-40.56-29.05-63.58-81.12-63.58-30.15,0-59.74,1.1-59.74,1.1v205.53h41.11v-71.25s7.13.55,14.8.55c54.81,0,84.95-31.24,84.95-72.35Z"/>
  <path class="cls-1" d="m218.28,395.04l50.42-15.89v149.63l-50.42,16.99c0,.55,0-150.73,0-150.73Zm-77.28-35.63v206.08h206.63v-206.08h-206.63Z"/>
</svg>