<?xml version="1.0" encoding="UTF-8"?>
<svg id="Layer_1" data-name="Layer 1" xmlns="http://www.w3.org/2000/svg" viewBox="0 0 1000 1000">
  <defs>
    <style>
      .cls-1 {
        fill: #002134;
      }
    </style>
  </defs>
  <path class="cls-1" d="M712.31,617.37c88.21,0,98.01-9.81,98.01-98.1v-39.24c0-88.29-9.8-98.1-98.01-98.1h-39.2c-88.21,0-98.01,9.81-98.01,98.1v39.24c0,88.29,9.8,98.1,98.01,98.1h39.2ZM722.11,568.32l-58.81,19.62v-156.96l58.81-19.62v156.96Z"/>
  <path class="cls-1" d="M280.96,538.53l12.54-4.18v53.6h-12.54v-49.42ZM256,587.94h12.54v-78.37h-12.54v78.37ZM231.03,534.34h12.54v53.6h-12.54v-7.8c-3.39,6.11-9.83,9.16-18.98,9.16-14.23,0-22.37-8.14-22.37-28.16s8.14-28.16,22.37-28.16c9.15,0,15.59,3.05,18.98,9.16v-7.8h0ZM231.03,559.78c0-10.52-3.73-14.59-14.58-14.59s-14.23,4.07-14.23,14.59v2.71c0,10.51,3.73,14.59,14.23,14.59s14.58-4.07,14.58-14.59v-2.71ZM504.21,534.34h12.2v53.6h-12.2v-7.8c-3.73,6.11-10.17,9.16-19.32,9.16-14.23,0-22.03-8.14-22.03-28.16s7.79-28.16,22.03-28.16c9.15,0,15.59,3.05,19.32,9.16v-7.8h0ZM504.21,559.78c-.34-10.52-4.06-14.59-14.58-14.59s-14.58,4.07-14.58,14.59v2.71c0,10.51,4.06,14.59,14.58,14.59s14.23-4.07,14.58-14.59v-2.71ZM432.02,532.98c-8.81,0-14.58,3.4-17.29,9.84-2.71-6.45-8.47-9.84-17.29-9.84-7.12,0-12.54,2.38-15.59,7.13v-5.77h-12.2v53.6h12.2v-31.55c0-8.14,3.05-11.19,11.19-11.19s10.85,3.05,10.85,11.19v31.55h12.54v-31.55c0-8.14,2.71-11.19,10.85-11.19s11.19,3.05,11.19,11.19v31.55h12.2v-36.3c0-11.88-6.78-18.66-18.64-18.66h0ZM280.96,528.24h12.54v-12.21h-12.54v12.21ZM336.44,532.98c-8.47,0-14.58,3.05-17.96,8.48v-7.13h-12.54v53.6h12.54v-29.17c0-9.84,3.39-13.57,13.22-13.57s13.56,3.73,13.56,13.57v29.17h12.2v-33.92c0-13.57-7.46-21.04-21.02-21.04h0ZM371.58,484.86c-9.26,0-14.35-2.49-14.35-14.36s5.08-14.36,14.35-14.36,14.35,2.49,14.35,14.36-5.08,14.36-14.35,14.36ZM425.13,438.5v39.13h-12.88c-10.39,0-13.23-3.58-13.98-11.35-1.65-17.28-13.58-22.35-26.7-22.35-14.12,0-26.89,5.88-26.89,26.57,0,2.6.2,4.97.58,7.13h-76.85c-9.83,0-13.56-1.47-13.56-13.57v-52.69h-12.54v57.11c0,15.83,7.01,21.37,21.02,21.37h87.66c5.06,5.36,12.6,7.24,20.58,7.24,9.79,0,18.92-2.83,23.61-11.45,3.26,2.9,8.22,4.21,17.07,4.21h25.42v-51.34h-12.54ZM425.13,417.58v12.55h12.54v-12.55h-12.54ZM469.53,512.46v-5.65h-4.41c-3.05,0-5.31-1.02-5.31-3.51,0-2.03,1.58-2.71,4.63-2.71h2.49v-5.54h-4.3c-5.76,0-8.7,2.6-8.7,6.56,0,2.26.79,3.96,2.03,5.21h-4.41v5.65h17.97ZM491.67,489.84v-78.48h-12.54v66.27h-33.1v12.21h45.65,0ZM503.87,411.35v78.48h12.54v-78.48h-12.54ZM236.22,489.84v-12.21h-9.38c-10.5,0-16.83-3.84-16.83-11.53,0-4.52,3.39-7.02,10.06-7.02h7.79v-12.21h-11.63c-11.3,0-18.75,6.78-18.75,16.74,0,5.77,1.47,10.29,4.74,14.02h-12.54v12.21h46.55,0ZM454.39,415.54l12.54-4.18v57.9h-12.54v-53.71h0Z"/>
</svg>