<?xml version="1.0" encoding="UTF-8"?>
<svg id="Layer_2" xmlns="http://www.w3.org/2000/svg" version="1.1" viewBox="0 0 1000 1000">
  <!-- Generator: Adobe Illustrator 29.2.1, SVG Export Plug-In . SVG Version: 2.1.0 Build 116)  -->
  <defs>
    <style>
      .st0 {
        fill: #da6c54;
      }

      .st1 {
        fill: #283242;
      }
    </style>
  </defs>
  <path class="st1" d="M374.7,724.3c18.8,0,28.6-16.3,28.6-33.8s-10.1-33.3-28.6-33.3h-15.9v67.1h15.9ZM374.9,636c32.5,0,50.1,26.5,50.1,54.3.4,28-17.1,55.1-50.1,55.1h-37.9v-109.4h37.9Z"/>
  <path class="st1" d="M447.7,713.3c.6,9.2,6.4,13.5,15.2,13.5s15.5-6.6,15.6-16.6c-.4-17.5-15.6-20-28.8-17.5v-3.3l18.8-34.8h-36.1v-18.6h64.9v3.3l-22.2,38.2c16.3,3,23.8,17.4,23.8,32.6s-12.8,36.9-35.9,36.9-33.9-12.5-34.6-33.7h19.1Z"/>
  <path class="st1" d="M559.6,710.2c0-11.3-6.4-17.5-16.9-17.5s-17.1,6.3-17.1,17.5,6.6,17.1,17.1,17.1,16.9-5.9,16.9-17.1ZM564.4,635.1l-23.4,41.2c1.6-.9,3.4-1.4,5.3-1.4,20.6-.8,35,12.8,35,35.4s-16.9,36.9-38.7,36.9-38.4-11.9-38.4-36.9,2.6-16.7,6.6-23.5l29.6-51.7h23.9Z"/>
  <path class="st1" d="M642.1,711.8c.3-2.7.4-5.5.4-8.8v-24.1c0-3.1-.1-6.1-.4-8.9-1-9.9-8.2-14.4-17.1-14.4s-16.2,4.5-17.2,14.4c-.3,2.8-.4,5.8-.4,8.9v24.1c0,3.3.1,6.1.4,8.8,1,9.5,7.9,14.7,17.2,14.7s16.1-5.2,17.1-14.7ZM663,672.5v36.8c0,23.8-17.1,37.7-37.9,37.7s-38.2-13.9-38.2-37.7v-36.8c0-23.6,17.1-37.4,38.2-37.4s37.9,13.8,37.9,37.4Z"/>
  <path class="st0" d="M657,252.8h-106.3c-1.6,0-3.1.6-4.2,1.8l-45.7,46.3c-1.1,1.1-1.7,2.6-1.7,4.2v95.2l-46.4-46.3c-1.6-1.5-4.1-1.5-5.6,0l-109,108.9c-1.6,1.6-1.6,4.1,0,5.6l109,108.9c1.6,1.5,4.1,1.5,5.6,0l46.4-46.3v43.4c0,3.3,2.7,6,6,6h106.3c1.5,0,3-.6,4.2-1.7l45.6-44.3c1.2-1.1,1.8-2.7,1.8-4.3v-271.4c0-3.3-2.7-6-6-6Z"/>
</svg>