<?xml version="1.0" encoding="UTF-8"?>
<svg id="Layer_1" data-name="Layer 1" xmlns="http://www.w3.org/2000/svg" xmlns:xlink="http://www.w3.org/1999/xlink" version="1.1" viewBox="0 0 1000 1000">
  <defs>
    <style>
      .cls-1 {
        clip-path: url(#clippath);
      }

      .cls-2 {
        fill: none;
      }

      .cls-2, .cls-3 {
        stroke-width: 0px;
      }

      .cls-3 {
        fill: #002a30;
      }
    </style>
    <clipPath id="clippath">
      <rect class="cls-2" x="179.1" y="400.4" width="641.8" height="199.1"/>
    </clipPath>
  </defs>
  <g class="cls-1">
    <g>
      <path class="cls-3" d="M480.2,417.1c8.5-.1,16.8,1.7,24.4,5.5,7,3.4,12.9,8.8,16.9,15.5,4.1,6.6,6.1,16.6,6.1,25.2s-1,9.8-2.9,14.4c-1.8,4.5-4.5,8.7-7.8,12.2-3.2,3.4-7,6.1-11.2,7.9,5.9,1.8,11.3,4.8,16,8.7,4.7,4,8.5,8.8,11.3,14.3,2.8,5.5,4.3,11.6,4.3,17.8,0,9.7-2.3,15.5-6.9,22.7-4.6,7-11,12.6-18.5,16.2-7.7,3.7-16.1,5.6-24.7,5.5h-77.9v-166h70.9ZM479.2,491.7c4.7,0,9.3-1.2,13.3-3.5,4-2.3,7.4-5.6,9.7-9.7,2.4-4.1,3.6-8.8,3.5-13.6,0-4.9-1.2-11.8-3.5-15.8-2.3-4-5.6-7.4-9.7-9.7-4-2.4-8.5-3.6-13.2-3.5h-48.2v55.7h48.1ZM485.4,564.4c5.2,0,10.3-1.2,14.9-3.8,4.5-2.5,8.2-6.2,10.7-10.6,2.6-4.5,3.9-7,3.9-12.5,0-5.2-1.3-10.2-3.9-14.7-2.6-4.4-6.3-8.1-10.8-10.6-4.5-2.5-9.5-3.8-14.6-3.8h-54.6v56.1h54.3ZM620.2,586.6c-14.2,0-26.3-2.4-36.1-7.3-9.9-4.9-17.1-11.3-21.8-19.3-4.7-7.5-7.2-16.2-7.2-25h21.7c0,5.9,1.8,11.7,5.2,16.5,3.9,5.3,9.1,9.5,15.2,12.1,7.3,3.1,15.2,4.7,23.1,4.5,14.2,0,25.1-2.6,32.6-7.8,7.5-5.2,11.3-12.9,11.4-23.1,0-9-3.7-15.8-11.2-20.3s-18.2-7.8-32.1-10c-10.3-1.6-20.5-4.1-30.3-7.5-8.4-3-16.1-8-22.2-14.5-6-6.4-8.9-14.9-8.9-25.3-.1-8.2,2-16.4,6.2-23.5,4.2-6.9,10.8-12.4,19.8-16.5,8.9-4.1,20.3-6.1,34.1-6.2,12.7,0,23.5,2,32.5,6,8.9,4,15.7,9.5,20.4,16.6,4.7,7.4,7.1,15.9,6.9,24.7h-21.7c0-5.2-1.5-10.4-4.5-14.6-3.3-4.6-7.8-8-13.1-10-6.6-2.5-13.6-3.7-20.7-3.5-13.8,0-23.7,2.6-29.5,7.7-2.8,2.4-5.1,5.4-6.6,8.8-1.5,3.4-2.3,7.1-2.2,10.8,0,8.4,3.8,14.8,11.5,19.2,7.7,4.4,19.3,7.7,35,9.8,17.2,2.8,31.2,7.7,42.1,14.9,10.9,7.2,16.4,18.4,16.3,33.7.2,9.5-2.5,18.8-7.9,26.6-5.2,7.4-12.8,13-22.7,17-9.9,3.9-21.6,5.9-35.1,5.9h0ZM710.6,417.1h110.4v18.8h-88.8v55.7h77.2v16.7h-77.2v74.8h-21.6v-166Z"/>
      <path class="cls-3" d="M265.6,400.4l-86.6,49.8v99.6l86.5,49.8,86.5-49.8v-99.6l-86.5-49.8ZM198.1,538.9v-67.3c10.9,7,20.4,16,28.1,26.4,8.4,11.5,15.1,24.2,19.8,37.7,4.2,11.7,7.2,23.7,9,36l-56.9-32.8ZM256.1,516c-3.3-10.3-8.1-20.1-14.4-29-9.2-12.5-20.6-23.2-33.6-31.5l48-27.7v88.2ZM275.1,427.8l48,27.7c-13.1,8.3-24.5,19-33.6,31.5-6.3,8.9-11.1,18.6-14.4,29v-88.2ZM333.1,538.9l-56.9,32.8c1.8-12.3,4.8-24.3,9-36,4.7-13.5,11.4-26.1,19.8-37.7,7.7-10.4,17.2-19.4,28.1-26.4v67.3Z"/>
    </g>
  </g>
</svg>