<?xml version="1.0" encoding="UTF-8"?>
<svg id="Layer_1" xmlns="http://www.w3.org/2000/svg" version="1.1" viewBox="0 0 1000 1000">
  <!-- Generator: Adobe Illustrator 29.1.0, SVG Export Plug-In . SVG Version: 2.1.0 Build 142)  -->
  <defs>
    <style>
      .st0 {
        fill: #2359ff;
      }
    </style>
  </defs>
  <path class="st0" d="M226.6,458.2v65h23.1v-65c0-8.8,7.2-16,16-16h30.3v-23.1h-30.3c-21.5,0-39.1,17.5-39.1,39.1"/>
  <path class="st0" d="M272.8,512c0,18.9-15.4,34.3-34.3,34.3h-.8c-18.9,0-34.3-15.4-34.3-34.3v-87.7h-23.1v87.7c0,31.7,25.8,57.4,57.4,57.4h.8c31.7,0,57.4-25.8,57.4-57.4v-46.7h-23.1v46.7Z"/>
  <path class="st0" d="M355.7,511.4v-60.2h23.6v56.5c0,13.2,6.2,19.7,18.3,19.7s18.1-9.2,18.1-19.9v-56.3h23.6v60.5c0,21.5-18.1,34.9-41.9,34.9s-41.7-12.3-41.7-35.2"/>
  <path class="st0" d="M519.6,449.5c-5.3,0-9.3,0-15,0-14.2,0-22,13.2-25,22h-.9s.2-20.4.2-20.4h-20.4v93.3h23.6v-55.1c0-10.8,8.4-17.8,22.2-17.8s10,0,15.4,0v-22.2Z"/>
  <path class="st0" d="M555.2,451.2v14.9c-.1,0,1.4,0,1.4,0,4.3-9.3,14.4-17,29.2-17s37.4,11.5,37.4,45.6-16.2,52-42.4,52-19.3-4.9-23.4-9.4v40.9h-23.4v-126.9h21.2ZM577.6,468c-12.1,0-20.2,7-20.2,18.9v34.8c3.1,2.9,10.1,6.4,17.9,6.4,16.4,0,23.6-12.3,23.6-32.5s-6.2-27.6-21.2-27.6"/>
  <path class="st0" d="M726.3,528.3c-2.1,0-3.3,0-5.3,0-3.9,0-5.3-1.9-5.3-8.8v-36.8c0-27.1-14.4-33.7-36.8-33.7s-23.6,0-33.5,0l-.4,18.5c10.7,0,20.6,0,29.4,0s17.9,1.4,17.9,14.2v3s-9.4,0-18.9,0c-22,0-38.2,11.1-38.2,33s9,29.3,30,29.3,24.5-5.8,30-13.9c1.6,8.2,7.8,13.2,16.9,13.2s10.3.2,14.1.2v-18.3ZM692.6,513.3c0,9.3-7.2,16.4-19.3,16.4s-14-5.9-14-14.1,6.2-16.1,18.1-16.1h15.2v13.9Z"/>
  <path class="st0" d="M793.1,451.2l-19.3,72.8h-.2l-19.5-72.8h-25.5l28.8,91.7h10.1c-4.5,13.6-8.2,18.7-19.1,18.7s-9.3-.5-16.1-2.6v17.7c6.1,2,12.7,3.2,20.2,3.2,24.1,0,30.6-16.4,38.7-43.4l26.3-85.3h-24.5Z"/>
</svg>